# xmcd CD database file
#
# Track frame offsets:
#	150
#	11238
#	41567
#	54804
#	80576
#	90923
#	117425
#	123142
#	134569
#	144691
#	157704
#	168366
#	182490
#	198297
#	214729
#	225356
#
# Disc length: 3297 seconds
#
# Revision: 1
# Processed by: cddbd v1.4PL0 Copyright (c) Steve Scherf et al.
# Submitted via: NotifyCDPlayer 1.60beta14
#
DISCID=c70cdf10
DTITLE=Eric Clapton - Most Famous Hits The Album - Disc1
DYEAR=1900
DGENRE=
TTITLE0=Boom Boom
TTITLE1=Smokestack Lightning
TTITLE2=You Can't Judge A Book By Its Cover
TTITLE3=Take It Easy Baby
TTITLE4=Let It Rock
TTITLE5=I Wish You Would
TTITLE6=Choker
TTITLE7=Snake Drive
TTITLE8=Got To Hurry
TTITLE9=Freight Loader
TTITLE10=A Certain Girl
TTITLE11=Draggin' My Tail
TTITLE12=Louise (Louise Blues)
TTITLE13=Early In The Morning
TTITLE14=Pound And Stomps
TTITLE15=The First Time I Met The Blues
EXTD=
EXTT0=
EXTT1=
EXTT2=
EXTT3=
EXTT4=
EXTT5=
EXTT6=
EXTT7=
EXTT8=
EXTT9=
EXTT10=
EXTT11=
EXTT12=
EXTT13=
EXTT14=
EXTT15=
PLAYORDER=
